<svg width="24" height="23" viewBox="0 0 24 23" fill="none" xmlns="http://www.w3.org/2000/svg">
<path fill-rule="evenodd" clip-rule="evenodd" d="M13.1453 2.99118C14.7973 1.3392 17.4757 1.3392 19.1277 2.99118C20.7796 4.64316 20.7796 7.32155 19.1277 8.97353L9.36418 18.737C8.7228 19.3784 7.85659 19.7444 6.94964 19.7571L4.62216 19.7899C3.34826 19.8079 2.31093 18.7706 2.32888 17.4967L2.36169 15.1692C2.37448 14.2622 2.74045 13.396 3.38182 12.7547L13.1453 2.99118ZM17.6581 4.46072C16.8177 3.62035 15.4552 3.62035 14.6148 4.46072L4.85137 14.2242C4.59257 14.483 4.4449 14.8325 4.43974 15.1985L4.40693 17.526C4.40547 17.6292 4.48958 17.7134 4.59287 17.7119L6.92034 17.6791C7.28631 17.6739 7.63583 17.5263 7.89463 17.2675L17.6581 7.50398C18.4985 6.66361 18.4985 5.3011 17.6581 4.46072Z" fill="white"/>
<path fill-rule="evenodd" clip-rule="evenodd" d="M16.1363 9.74495L12.3765 5.9834L13.8457 4.51352L17.6055 8.27506L16.1363 9.74495Z" fill="white"/>
<path fill-rule="evenodd" clip-rule="evenodd" d="M12.4678 19.5811C12.4678 19.0072 12.933 18.5419 13.5069 18.5419H22.063C22.6369 18.5419 23.1021 19.0072 23.1021 19.5811C23.1021 20.155 22.6369 20.6202 22.063 20.6202H13.5069C12.933 20.6202 12.4678 20.155 12.4678 19.5811Z" fill="white"/>
</svg>
